<svg width="24" height="28" viewBox="0 0 24 28" fill="none" xmlns="http://www.w3.org/2000/svg">
    <g clip-path="url(#w27jx4ktaa)" fill="#036666">
        <path d="M21.013 3.327h-3.436v1.425h3.446c.873 0 1.581.62 1.581 1.384V25.2c0 .765-.71 1.385-1.583 1.385H3.201a1.78 1.78 0 0 1-.605-.106 1.614 1.614 0 0 1-.514-.3 1.389 1.389 0 0 1-.343-.449 1.237 1.237 0 0 1-.12-.53V6.136c0-.766.709-1.385 1.582-1.385h3.446V3.327H3.21c-.853 0-1.67.297-2.273.825-.603.527-.942 1.242-.942 1.988v19.047c0 .746.34 1.46.942 1.988.603.527 1.42.823 2.273.824h17.801c.852 0 1.67-.297 2.273-.824.602-.528.941-1.243.942-1.989V6.139c0-.746-.34-1.461-.942-1.989-.603-.527-1.42-.824-2.273-.824l.001.001z"/>
        <path d="M16.807 2.596h-1.759c0-.689-.313-1.349-.869-1.836C13.623.273 12.87 0 12.081 0c-.786 0-1.541.273-2.097.76-.557.487-.87 1.147-.87 1.836H7.369v3.566h9.43V2.596h.009zm-3.011 0h-3.427v-.038c0-.397.181-.779.503-1.06.321-.282.757-.44 1.212-.44.455 0 .89.158 1.213.44.321.281.502.663.502 1.06v.04-.002h-.003zM7.929 9.93H20.54v1.365H7.93V9.93zm0 5.714H20.54v1.365H7.93v-1.365zm0 5.647H20.54v1.372H7.93v-1.372zM3.504 9.05h3.573v3.127H3.504V9.05zm0 5.714h3.573v3.127H3.504v-3.127zm0 5.65h3.573v3.126H3.504v-3.127z"/>
    </g>
    <defs>
        <clipPath id="w27jx4ktaa">
            <path fill="#fff" d="M0 0h24v28H0z"/>
        </clipPath>
    </defs>
</svg>
