<svg width="34" height="31" viewBox="0 0 34 31" fill="none" xmlns="http://www.w3.org/2000/svg">
    <path d="M3.4 9.185h3.4v3.445H3.4V9.185zM9.067 9.185h3.4v3.445h-3.4V9.185zM14.733 9.185h3.4v3.445h-3.4V9.185zM20.4 9.185h3.4v3.445h-3.4V9.185zM20.4 13.778h3.4v3.444h-3.4v-3.444zM14.733 13.778h3.4v3.444h-3.4v-3.444zM9.067 13.778h3.4v3.444h-3.4v-3.444zM3.4 13.778h3.4v3.444H3.4v-3.444zM3.4 18.37h3.4v3.445H3.4V18.37zM9.067 18.37h3.4v3.445h-3.4V18.37zM14.733 18.37h3.4v3.445h-3.4V18.37zM20.4 18.37h3.4v3.445h-3.4V18.37z" fill="#036666"/>
    <path d="M5.95 0c.225 0 .442.09.601.252.16.162.249.38.249.61v.86h13.6v-.86c0-.23.09-.448.249-.61a.844.844 0 0 1 1.202 0c.16.162.249.38.249.61v.86h1.7c.902 0 1.767.363 2.404 1.01.638.645.996 1.521.996 2.435V24.11c0 .914-.358 1.79-.996 2.436a3.378 3.378 0 0 1-2.404 1.009H3.4a3.378 3.378 0 0 1-2.404-1.01A3.468 3.468 0 0 1 0 24.112V5.167c0-.914.358-1.79.996-2.436A3.378 3.378 0 0 1 3.4 1.722h1.7v-.86c0-.23.09-.448.249-.61A.844.844 0 0 1 5.95 0zM1.7 6.889V24.11c0 .457.18.895.498 1.218.319.323.751.504 1.202.504h20.4c.45 0 .883-.181 1.202-.504.319-.323.498-.761.498-1.218V6.89H1.7z" fill="#036666"/>
    <path d="M34 24.111C34 27.916 30.956 31 27.2 31c-3.755 0-6.8-3.084-6.8-6.889s3.045-6.889 6.8-6.889c3.756 0 6.8 3.084 6.8 6.89z" fill="#E5E5E5"/>
    <path fill-rule="evenodd" clip-rule="evenodd" d="M27.2 29.852c3.13 0 5.667-2.57 5.667-5.74 0-3.171-2.537-5.742-5.667-5.742s-5.667 2.57-5.667 5.741c0 3.17 2.537 5.74 5.667 5.74zm0 1.148c3.756 0 6.8-3.084 6.8-6.889s-3.044-6.889-6.8-6.889c-3.755 0-6.8 3.084-6.8 6.89 0 3.804 3.045 6.888 6.8 6.888z" fill="#E5E5E5"/>
    <path d="M28.333 24.111A1.14 1.14 0 0 1 27.2 25.26a1.14 1.14 0 0 1-1.133-1.148 1.14 1.14 0 0 1 1.133-1.148 1.14 1.14 0 0 1 1.133 1.148z" fill="red"/>
    <path fill-rule="evenodd" clip-rule="evenodd" d="M27.2 29.852c3.13 0 5.667-2.57 5.667-5.74 0-3.171-2.537-5.742-5.667-5.742s-5.667 2.57-5.667 5.741c0 3.17 2.537 5.74 5.667 5.74zm0 1.148c3.756 0 6.8-3.084 6.8-6.889s-3.044-6.889-6.8-6.889c-3.755 0-6.8 3.084-6.8 6.89 0 3.804 3.045 6.888 6.8 6.888z" fill="red"/>
    <path fill-rule="evenodd" clip-rule="evenodd" d="m27.422 20.847 2-.405a.227.227 0 0 1 .267.18l.4 2.026a.23.23 0 0 1-.178.27.227.227 0 0 1-.267-.18l-.292-1.483-1.963 2.983-.378-.254L28.974 21l-1.463.296a.23.23 0 0 1-.089-.45z" fill="red"/>
</svg>
