<svg width="152" height="48" viewBox="0 0 152 48" fill="none" xmlns="http://www.w3.org/2000/svg">
    <path d="M147.25 47.997H4.75c-2.612 0-4.75-2.16-4.75-4.8V4.8C0 2.16 2.138 0 4.75 0h142.5c2.613 0 4.75 2.16 4.75 4.8v38.397c0 2.64-2.137 4.8-4.75 4.8z" fill="#000"/>
    <path fill-rule="evenodd" clip-rule="evenodd" d="M11.645 23.525V10.926c0-.72.593-1.32 1.187-1.32.594 0 .831.12 1.188.36l22.918 12.72c.475.24.713.6.713.96s-.238.72-.713.96L14.02 37.323c-.237.12-.593.36-1.187.36-.594 0-1.188-.6-1.188-1.32V23.526z" fill="url(#2gm6fgadea)"/>
    <path fill-rule="evenodd" clip-rule="evenodd" d="M26.484 23.645 12.59 9.606h.237c.594 0 .832.12 1.188.36l16.862 9.36-4.393 4.32z" fill="url(#63f2qtum5b)"/>
    <path fill-rule="evenodd" clip-rule="evenodd" d="m30.763 27.83-4.275-4.32 4.394-4.439 6.056 3.36c.475.24.713.6.713.96s-.238.72-.713.96l-6.175 3.48z" fill="url(#y7ee4o7lac)"/>
    <path fill-rule="evenodd" clip-rule="evenodd" d="m12.703 37.451 13.775-13.92 4.275 4.32-16.744 9.24c-.356.24-.593.36-1.306.36.119 0 .119 0 0 0z" fill="url(#wukxg9if0d)"/>
    <path fill-rule="evenodd" clip-rule="evenodd" d="M84.43 40.675c-.593-.48-1.068-1.32-1.306-1.8l1.9-.84c.12.24.357.6.594.96.475.48 1.188.96 1.9.96.713 0 1.544-.36 2.019-.96.356-.6.594-1.2.594-2.04v-.72c-1.425 1.8-4.394 1.56-6.057-.36-1.78-1.92-1.78-5.16 0-7.079 1.782-1.8 4.394-2.04 5.938-.36v-.84h2.019v9c0 2.28-.832 3.6-1.9 4.44-.713.6-1.782.84-2.732.84-1.068-.12-2.137-.48-2.968-1.2zm49.757.48 2.019-4.8-3.563-8.279h2.019l2.494 5.88 2.493-5.88h2.019l-5.462 13.08h-2.019zm-9.619-4.56c-.594-.6-.831-1.44-.831-2.28 0-.72.237-1.44.712-1.92.832-.84 2.019-1.2 3.325-1.2.832 0 1.544.12 2.138.48 0-1.44-1.188-2.04-2.138-2.04-.831 0-1.662.48-2.018 1.32l-1.782-.72c.357-.84 1.307-2.399 3.682-2.399 1.187 0 2.375.36 3.087 1.2.713.84.95 1.8.95 3.12v5.04h-2.019v-.84c-.237.36-.712.6-1.068.84-.475.24-1.069.36-1.663.36-.712-.12-1.781-.36-2.375-.96zm-63.294-4.32c0-2.4 1.782-5.039 4.988-5.039 3.087 0 4.987 2.64 4.987 5.04s-1.78 5.04-4.987 5.04c-3.206 0-4.988-2.64-4.988-5.04zm10.688 0c0-2.4 1.781-5.039 4.987-5.039 3.088 0 4.988 2.64 4.988 5.04s-1.781 5.04-4.988 5.04c-3.087 0-4.987-2.64-4.987-5.04zm-24.106 2.64c-2.97-3-2.85-7.919.118-11.039 1.544-1.56 3.444-2.28 5.463-2.28 1.9 0 3.8.72 5.225 2.16l-1.425 1.56c-2.138-2.16-5.581-2.04-7.6.12a5.841 5.841 0 0 0 0 8.04c2.137 2.28 5.7 2.4 7.837.12.713-.72.95-1.68 1.07-2.64h-4.988v-2.16h7.006c.119.48.119 1.08.119 1.68 0 1.8-.713 3.6-1.9 4.8-1.307 1.32-3.207 2.04-5.107 2.04-2.137-.12-4.275-.84-5.818-2.4zm50.23.84c-1.78-1.92-1.78-5.16 0-7.199 1.782-1.92 4.751-1.92 6.413 0 .594.6.95 1.44 1.307 2.28l-6.532 2.76a2.533 2.533 0 0 0 2.375 1.56c1.069 0 1.782-.36 2.494-1.44l1.781 1.2c-.237.24-.475.48-.593.72-2.019 2.04-5.463 2.04-7.244.12zm12.351 1.44V23.876h4.275c2.494 0 4.512 1.8 4.512 3.96s-1.781 3.96-4.037 3.96h-2.613v5.28h-2.137v.12zm9.975 0V23.876h2.019v13.32h-2.019zm-26.838-.24V22.077h2.138v14.88h-2.138zm36.219-3.72c-.475-.36-1.187-.48-1.9-.48-1.425 0-2.256.72-2.256 1.56 0 .84.831 1.32 1.662 1.32 1.188 0 2.494-.96 2.494-2.4zm-60.8-.96c0-1.44-.95-3-2.731-3s-2.731 1.56-2.731 3 .95 3 2.73 3c1.663 0 2.732-1.56 2.732-3zm10.688 0c0-1.44-.95-3-2.732-3-1.78 0-2.73 1.56-2.73 3s.95 3 2.73 3c1.782 0 2.732-1.56 2.732-3zm10.568.84c0-.12 0-.24.12-.36v-1.08c0-.12-.12-.36-.12-.48-.356-1.2-1.425-2.039-2.493-2.039-1.425 0-2.613 1.44-2.613 3 0 1.68 1.188 3 2.731 3 .95.12 1.9-.72 2.375-2.04zm8.67-1.08 4.393-1.92c-.475-.84-1.188-1.079-1.781-1.079-1.782.12-2.85 2.04-2.613 3zm18.168-4.079c0-1.2-.95-2.04-2.256-2.04h-2.375v4.2h2.493a2.14 2.14 0 0 0 2.138-2.16z" fill="#fff"/>
    <path fill-rule="evenodd" clip-rule="evenodd" d="M135.73 38.739h-.117v-.117h.117-.117v.117h.117zM135.967 38.739c0-.117 0-.117 0 0-.117-.117-.117-.117 0 0-.117 0-.117 0 0 0zm0-.117c0 .117 0 .117 0 0 0 .117-.117.117 0 0 0 0-.117 0 0 0z" fill="#fff"/>
    <path fill-rule="evenodd" clip-rule="evenodd" d="M136.082 38.622h-.117.117v.117-.117z" fill="#fff"/>
    <path d="M46.188 12.103c0-2.16 1.543-3.48 3.443-3.48 1.306 0 2.138.6 2.731 1.44l-.95.6c-.356-.48-.95-.84-1.78-.84-1.307 0-2.257.96-2.257 2.4s.95 2.4 2.256 2.4c.713 0 1.306-.36 1.544-.6v-1.08h-1.9v-1.08h3.206v2.52c-.593.72-1.544 1.2-2.731 1.2-2.019 0-3.563-1.44-3.563-3.48zM53.91 15.476v-6.72h4.513v1.08h-3.444v1.68h3.325v1.08h-3.325v1.92h3.444v1.08l-4.513-.12zM61.753 15.476v-5.64h-2.019v-1.08h5.225v1.08h-2.018v5.64h-1.188zM68.988 15.476v-6.72h1.188v6.72h-1.188zM73.382 15.476v-5.64h-2.019v-1.08h5.225v1.08H74.57v5.64h-1.188zM80.39 12.103c0-2.04 1.426-3.48 3.444-3.48 2.02 0 3.444 1.44 3.444 3.48s-1.425 3.48-3.444 3.48c-2.018 0-3.443-1.56-3.443-3.48zm5.582 0c0-1.44-.831-2.4-2.256-2.4-1.307 0-2.257 1.08-2.257 2.4 0 1.44.832 2.4 2.257 2.4 1.425 0 2.256-1.08 2.256-2.4zM93.221 15.476l-3.444-4.8v4.8H88.59v-6.72h1.187l3.444 4.68v-4.68h1.188v6.72H93.22z" fill="#fff"/>
    <defs>
        <linearGradient id="2gm6fgadea" x1="19.325" y1="7.895" x2="26.104" y2="35.45" gradientUnits="userSpaceOnUse">
            <stop stop-color="#006884"/>
            <stop offset="1" stop-color="#8AD1D0"/>
        </linearGradient>
        <linearGradient id="63f2qtum5b" x1="11.213" y1="11.819" x2="29.415" y2="21.557" gradientUnits="userSpaceOnUse">
            <stop stop-color="#24BBB6"/>
            <stop offset="1" stop-color="#DBE692"/>
        </linearGradient>
        <linearGradient id="y7ee4o7lac" x1="32.063" y1="28.334" x2="32.063" y2="18.797" gradientUnits="userSpaceOnUse">
            <stop stop-color="#FCC072"/>
            <stop offset="1" stop-color="#F58A5B"/>
        </linearGradient>
        <linearGradient id="wukxg9if0d" x1="14.716" y1="39.934" x2="29.179" y2="25.367" gradientUnits="userSpaceOnUse">
            <stop stop-color="#712B8F"/>
            <stop offset="1" stop-color="#EA1D27"/>
        </linearGradient>
    </defs>
</svg>
