<svg width="152" height="48" viewBox="0 0 152 48" fill="none" xmlns="http://www.w3.org/2000/svg">
    <path d="M147.25 47.997H4.75c-2.612 0-4.75-2.16-4.75-4.8V4.8C0 2.16 2.138 0 4.75 0h142.5c2.612 0 4.75 2.16 4.75 4.8v38.397c0 2.64-2.138 4.8-4.75 4.8z" fill="#000"/>
    <path d="M32.066 23.762c0-3.72 3.087-5.52 3.206-5.64-1.781-2.52-4.394-2.88-5.344-3-2.256-.239-4.512 1.32-5.581 1.32-1.188 0-2.969-1.32-4.869-1.32-2.494 0-4.75 1.44-6.056 3.72-2.613 4.56-.713 11.28 1.781 15 1.306 1.8 2.731 3.84 4.631 3.72 1.9-.12 2.613-1.2 4.87-1.2 2.255 0 2.85 1.2 4.868 1.2 2.019 0 3.325-1.8 4.512-3.6 1.425-2.04 2.02-4.08 2.02-4.2-.12-.12-4.038-1.56-4.038-6zM28.386 12.714c.95-1.32 1.663-3 1.544-4.8-1.425.12-3.325.96-4.275 2.28-.95 1.08-1.781 2.88-1.544 4.56 1.544.12 3.207-.84 4.275-2.04zM59.141 37.327H56.53l-1.425-4.56h-4.988l-1.306 4.56h-2.494l4.988-15.479h3.087l4.75 15.48zm-4.512-6.48-1.306-4.08c-.12-.36-.357-1.439-.832-2.879-.118.6-.356 1.68-.712 2.88l-1.306 4.08h4.156zM71.844 31.69c0 1.919-.475 3.359-1.544 4.559-.95.96-2.019 1.44-3.444 1.44-1.425 0-2.493-.48-3.087-1.56v5.88h-2.494v-12c0-1.2 0-2.4-.119-3.72h2.138l.119 1.8c.83-1.32 2.018-2.04 3.68-2.04 1.307 0 2.376.48 3.207 1.56 1.069.96 1.544 2.28 1.544 4.08zm-2.494 0c0-1.08-.237-2.04-.712-2.64-.476-.72-1.188-1.08-2.138-1.08-.594 0-1.188.24-1.662.6-.475.36-.832.96-.95 1.56-.12.36-.12.6-.12.72v1.92c0 .839.238 1.439.713 2.039.475.6 1.188.84 1.9.84.95 0 1.663-.36 2.138-1.08.593-.72.831-1.68.831-2.88zM84.543 31.69c0 1.919-.475 3.359-1.544 4.559-.95.96-2.018 1.44-3.444 1.44-1.425 0-2.493-.48-3.087-1.56v5.88h-2.494v-12c0-1.2 0-2.4-.118-3.72h2.137l.119 1.8c.831-1.32 2.019-2.04 3.681-2.04 1.306 0 2.375.48 3.206 1.56 1.069.96 1.544 2.28 1.544 4.08zm-2.494 0c0-1.08-.237-2.04-.712-2.64-.475-.72-1.188-1.08-2.138-1.08-.593 0-1.187.24-1.662.6-.475.36-.832.96-.95 1.56-.119.36-.119.6-.119.72v1.92c0 .839.237 1.439.712 2.039.475.6 1.188.84 1.9.84.95 0 1.663-.36 2.138-1.08.594-.72.831-1.68.831-2.88zM98.795 32.986c0 1.32-.475 2.4-1.306 3.24-.95.96-2.375 1.32-4.156 1.32-1.663 0-2.969-.36-3.919-.96l.594-2.04c1.069.6 2.256.96 3.562.96.95 0 1.663-.24 2.138-.6.475-.48.712-.96.712-1.68 0-.6-.237-1.2-.593-1.56-.475-.48-1.188-.84-2.138-1.2-2.731-.96-4.037-2.52-4.037-4.44 0-1.32.475-2.28 1.425-3.12.95-.84 2.137-1.2 3.8-1.2 1.425 0 2.493.24 3.443.72l-.593 2.04c-.832-.48-1.782-.72-2.97-.72-.83 0-1.543.24-2.018.6-.356.36-.594.84-.594 1.44s.238 1.08.713 1.56c.356.36 1.187.72 2.256 1.2a8.003 8.003 0 0 1 2.969 1.92c.356.6.712 1.44.712 2.52zM106.874 28.078h-2.731v5.4c0 1.32.475 2.04 1.425 2.04.475 0 .831 0 1.069-.12l.118 1.92c-.475.24-1.068.24-1.9.24-.95 0-1.781-.24-2.256-.84-.594-.6-.831-1.56-.831-3v-5.64h-1.663v-1.92h1.663v-2.04l2.375-.72v2.76h2.731v1.92zM119.115 31.675c0 1.68-.475 3.12-1.425 4.2-1.069 1.08-2.375 1.68-4.038 1.68-1.662 0-2.968-.6-3.918-1.68-.95-1.08-1.425-2.4-1.425-4.08 0-1.68.475-3.12 1.543-4.2.95-1.08 2.375-1.68 4.038-1.68 1.662 0 2.969.6 3.919 1.68.831 1.08 1.306 2.4 1.306 4.08zm-2.613.12c0-1.08-.237-1.92-.712-2.64a2.541 2.541 0 0 0-2.256-1.32c-.95 0-1.782.48-2.257 1.32-.475.72-.712 1.68-.712 2.64 0 1.08.237 1.92.712 2.64a2.543 2.543 0 0 0 2.257 1.32c.95 0 1.662-.48 2.256-1.32.475-.72.712-1.68.712-2.64zM127.06 28.325c-.237 0-.475-.12-.831-.12-.831 0-1.544.36-2.019.96-.356.6-.594 1.32-.594 2.16v5.88h-2.493v-7.68c0-1.32 0-2.4-.119-3.48h2.137l.119 2.16h.119c.237-.72.712-1.32 1.187-1.8.594-.36 1.188-.6 1.782-.6h.593v2.52h.119zM137.989 31.195c0 .48 0 .84-.119 1.08h-7.362c0 1.08.356 1.92 1.069 2.52.593.48 1.425.84 2.375.84 1.068 0 2.137-.12 2.968-.48l.357 1.68c-1.069.48-2.257.72-3.682.72-1.662 0-3.087-.48-4.037-1.56-.95-.96-1.425-2.4-1.425-4.08 0-1.68.475-3.12 1.306-4.2.95-1.2 2.256-1.8 3.919-1.8 1.544 0 2.85.6 3.562 1.8.832.96 1.069 2.16 1.069 3.48zm-2.256-.6c0-.72-.119-1.32-.475-1.92-.475-.72-1.069-1.08-1.9-1.08s-1.425.36-1.9.96c-.356.48-.594 1.2-.713 1.92h4.988v.12zM53.906 12.356c0 1.32-.357 2.4-1.188 3.12-.713.6-1.781.96-3.206.96-.713 0-1.306 0-1.782-.12v-7.44c.594-.12 1.307-.12 2.138-.12 1.306 0 2.256.24 2.969.84.593.6 1.069 1.56 1.069 2.76zm-1.307 0c0-.84-.237-1.56-.712-2.04s-1.188-.72-2.019-.72c-.356 0-.712 0-.95.12v5.64h.831c.95 0 1.663-.24 2.138-.72.475-.48.712-1.32.712-2.28zM60.566 13.54c0 .84-.237 1.56-.712 2.04-.475.6-1.188.84-2.019.84-.831 0-1.425-.24-1.9-.84-.475-.48-.712-1.2-.712-2.04 0-.84.237-1.56.712-2.04.475-.6 1.188-.84 2.019-.84.831 0 1.425.24 1.9.84.475.48.712 1.2.712 2.04zm-1.187 0c0-.48-.119-.96-.356-1.32-.238-.48-.594-.6-1.07-.6-.474 0-.83.24-1.068.6-.237.36-.356.84-.356 1.32 0 .48.119.96.356 1.32.238.48.594.6 1.069.6s.831-.24 1.069-.72c.237-.24.356-.72.356-1.2zM69.702 10.794l-1.662 5.52H66.97l-.712-2.4c-.238-.6-.357-1.2-.475-1.8-.12.6-.238 1.2-.475 1.8l-.713 2.4h-1.069l-1.78-5.52h1.187l.593 2.64.357 1.8c.118-.48.237-1.08.475-1.8l.712-2.64h.95l.713 2.52c.237.6.356 1.2.475 1.8l.356-1.8.712-2.52h1.425zM75.877 16.334H74.69v-3.12c0-.96-.356-1.44-1.069-1.44-.356 0-.594.12-.831.36-.238.24-.356.6-.356.96v3.24h-1.188v-5.52h1.069v.84c.119-.24.356-.48.594-.72.356-.24.712-.36 1.068-.36.475 0 .95.12 1.307.48.475.36.593.96.593 1.8v3.48zM79.2 16.316h-1.188v-8.04h1.187v8.04zM86.332 13.54c0 .84-.237 1.56-.712 2.04-.476.6-1.188.84-2.02.84-.83 0-1.424-.24-1.9-.84-.474-.48-.712-1.2-.712-2.04 0-.84.238-1.56.713-2.04a2.85 2.85 0 0 1 2.019-.84c.83 0 1.424.24 1.9.84.474.48.712 1.2.712 2.04zm-1.188 0c0-.48-.118-.96-.356-1.32-.237-.48-.593-.6-1.069-.6-.474 0-.83.24-1.068.6-.238.36-.356.84-.356 1.32 0 .48.118.96.356 1.32.237.48.594.6 1.069.6s.83-.24 1.068-.72c.238-.24.356-.72.356-1.2zM92.148 16.3h-1.07l-.118-.6c-.356.48-.95.72-1.544.72-.475 0-.95-.12-1.187-.48-.238-.36-.475-.72-.475-1.08 0-.72.237-1.2.831-1.56.594-.36 1.306-.48 2.375-.48v-.12c0-.72-.356-1.08-1.069-1.08-.593 0-.95.12-1.425.36l-.237-.84c.475-.36 1.069-.48 1.9-.48 1.425 0 2.137.72 2.137 2.28v2.04c-.118.6-.118.96-.118 1.32zm-1.188-1.92v-.84c-1.306 0-2.019.36-2.019 1.08 0 .24.12.48.238.6.119.12.356.24.594.24.237 0 .475-.12.712-.24.238-.12.356-.36.475-.6v-.24zM99.04 16.33H97.97v-.84c-.356.72-.95.96-1.781.96-.713 0-1.188-.24-1.663-.72-.475-.48-.593-1.2-.593-2.04 0-.84.237-1.56.712-2.16.475-.48 1.069-.72 1.663-.72.712 0 1.187.24 1.543.72V8.41h1.188v7.92zm-1.188-2.28V12.73c-.118-.24-.237-.48-.475-.72-.237-.24-.475-.24-.83-.24-.476 0-.832.24-1.07.6-.237.36-.356.84-.356 1.44s.119.96.356 1.32c.238.36.594.6 1.07.6.355 0 .712-.12.95-.48.237-.48.355-.84.355-1.2zM109.371 13.54c0 .84-.237 1.56-.712 2.04-.475.6-1.188.84-2.019.84-.831 0-1.425-.24-1.9-.84-.475-.48-.713-1.2-.713-2.04 0-.84.238-1.56.713-2.04.475-.6 1.187-.84 2.019-.84.831 0 1.425.24 1.9.84.475.48.712 1.2.712 2.04zm-1.306 0c0-.48-.119-.96-.356-1.32-.238-.48-.594-.6-1.069-.6s-.831.24-1.069.6c-.237.36-.356.84-.356 1.32 0 .48.119.96.356 1.32.238.48.594.6 1.069.6s.831-.24 1.069-.72c.237-.24.356-.72.356-1.2zM115.901 16.334h-1.188v-3.12c0-.96-.356-1.44-1.068-1.44-.357 0-.594.12-.832.36-.237.24-.356.6-.356.96v3.24h-1.187v-5.52h1.068v.84c.119-.24.357-.48.594-.72.356-.24.713-.36 1.069-.36.475 0 .95.12 1.306.48.475.36.594.96.594 1.8v3.48zM123.976 11.745h-1.306v2.64c0 .72.237.96.712.96h.594v.96c-.238.12-.594.12-.95.12-.475 0-.831-.12-1.069-.48-.237-.24-.356-.84-.356-1.44v-2.76h-.831v-.96h.831v-.96l1.187-.36v1.32h1.307v.96h-.119zM130.389 16.316h-1.187v-3.12c0-.96-.357-1.44-1.069-1.44-.594 0-.95.24-1.188.84v3.72h-1.187v-8.04h1.187v3.36c.357-.6.95-.96 1.663-.96.475 0 .95.12 1.187.48.357.36.594 1.08.594 1.8v3.36zM136.914 13.314v.6h-3.562c0 .6.237.96.475 1.2.356.24.712.36 1.187.36.594 0 1.069-.12 1.425-.24l.238.84c-.475.24-1.069.36-1.782.36-.831 0-1.543-.24-2.018-.72-.475-.48-.713-1.2-.713-2.04 0-.84.238-1.56.713-2.04.475-.6 1.068-.84 1.9-.84.831 0 1.425.24 1.781.84.237.36.356.96.356 1.68zm-1.069-.36c0-.36-.118-.72-.237-.96-.238-.36-.475-.48-.95-.48-.356 0-.713.12-.95.48-.238.24-.356.6-.356.96h2.493z" fill="#fff"/>
</svg>
