<svg width="42" height="43" viewBox="0 0 42 43" fill="none" xmlns="http://www.w3.org/2000/svg">
    <ellipse cx="21" cy="21.011" rx="21" ry="21.011" fill="#355F9C"/>
    <g clip-path="url(#87k55fh5sa)">
        <path d="M27.59 24.394a10.01 10.01 0 0 1-3.09-.49.855.855 0 0 0-.883.21l-1.374 1.725c-2.476-1.182-4.795-3.415-6.029-5.98l1.707-1.453a.894.894 0 0 0 .21-.893 9.77 9.77 0 0 1-.49-3.09.874.874 0 0 0-.867-.867h-3.027c-.473 0-1.041.21-1.041.867 0 8.133 6.763 14.891 14.883 14.891.622 0 .867-.551.867-1.033v-3.02a.874.874 0 0 0-.867-.867z" fill="#fff"/>
    </g>
    <defs>
        <clipPath id="87k55fh5sa">
            <path fill="#fff" transform="translate(10.08 10.93)" d="M0 0h21v21.011H0z"/>
        </clipPath>
    </defs>
</svg>
