<svg width="42" height="42" viewBox="0 0 42 42" fill="none" xmlns="http://www.w3.org/2000/svg">
    <circle cx="21" cy="21" r="21" fill="#355F9C"/>
    <path d="M30.92 21.299a9.625 9.625 0 0 1-9.626 9.625m9.625-9.625-9.625 9.625m9.625-9.625a9.625 9.625 0 0 0-9.625-9.625m9.625 9.625-9.625-9.625m9.625 9.625H11.67m9.625 9.625a9.625 9.625 0 0 1-9.625-9.625m9.625 9.625-9.625-9.625m9.625 9.625c1.772 0 3.209-4.31 3.209-9.625s-1.437-9.625-3.209-9.625m0 19.25v-19.25m0 19.25c-1.772 0-3.208-4.31-3.208-9.625s1.436-9.625 3.208-9.625m0 0a9.625 9.625 0 0 0-9.625 9.625" stroke="#fff" stroke-linecap="round" stroke-linejoin="round"/>
</svg>
