<svg width="247" height="247" viewBox="0 0 247 247" fill="none" xmlns="http://www.w3.org/2000/svg">
    <path d="M154.375 216.125h-20.583v-20.583h20.583v20.583zm-20.583-72.042h-20.584v51.459h20.584v-51.459zm82.333-20.583h-20.583v41.167h20.583V123.5zm-20.583-20.583h-20.584V123.5h20.584v-20.583zM72.042 123.5H51.458v20.583h20.584V123.5zm-20.584-20.583H30.875V123.5h20.583v-20.583zM123.5 51.458h20.583V30.875H123.5v20.583zm-77.188-5.145v30.874h30.876V46.314H46.311zm46.313 46.312h-61.75v-61.75h61.75v61.75zm-46.313 77.188v30.875h30.876v-30.875H46.311zm46.313 46.312h-61.75v-61.75h61.75v61.75zm77.188-169.813v30.876h30.875V46.311h-30.875zm46.312 46.313h-61.75v-61.75h61.75v61.75zm-20.583 102.917v-30.875h-41.167v20.583h20.583v30.875h41.167v-20.583h-20.583zM174.958 123.5h-41.166v20.583h41.166V123.5zm-41.166-20.583h-61.75V123.5h20.583v20.583h20.583V123.5h20.584v-20.583zm10.291-10.292V72.042H123.5V51.458h-20.583v41.167h41.166zM69.469 54.031H54.03V69.47H69.47V54.03zm0 123.5H54.03v15.438H69.47v-15.438zm123.5-123.5h-15.438V69.47h15.438V54.03z" fill="#000"/>
</svg>
