<svg width="34" height="34" viewBox="0 0 34 34" fill="none" xmlns="http://www.w3.org/2000/svg">
    <path d="M18.39 7.11v19.78c-3.039-.463-6.026-.875-9.117-1.338V9.736c0-.257.051-.36.309-.412 2.833-.721 5.666-1.442 8.5-2.215h.309zm-1.648 2.163h-.154c-1.803.463-3.606.927-5.46 1.39-.207.052-.207.207-.207.361v12.879c0 .206.052.31.258.31 1.34.205 2.627.36 3.966.566.516.051 1.03.154 1.546.206.051-5.255.051-10.51.051-15.712zM24.676 8.5v16.279h-4.43v-1.597h2.781V10.2h-2.73V8.552c1.442-.052 2.885-.052 4.379-.052z" fill="#036666"/>
    <path d="M16.433 17.103c-.103.31-.154.567-.309.773-.206.309-.515.309-.773 0-.309-.412-.309-1.237 0-1.597.206-.31.567-.31.773 0 .103.257.206.515.31.824z" fill="#036666"/>
</svg>
