<svg width="34" height="34" viewBox="0 0 34 34" fill="none" xmlns="http://www.w3.org/2000/svg">
    <rect width="34" height="34" rx="17" fill="#fff"/>
    <path d="M26.582 6.8a3.443 3.443 0 0 0-2.988-1.752v1.237c.824 0 1.545.412 1.957 1.133.413.721.413 1.546 0 2.215l-3.915 6.8a2.209 2.209 0 0 1-1.957 1.134 2.209 2.209 0 0 1-1.958-1.134l-3.915-6.8c-.412-.72-.412-1.545 0-2.215a2.21 2.21 0 0 1 1.958-1.133V5.048c-1.237 0-2.37.67-2.988 1.752a3.444 3.444 0 0 0 0 3.452L16.639 17c.515.927 1.391 1.494 2.37 1.7v3.297c0 3.194-1.906 5.821-4.224 5.821-2.318 0-4.224-2.576-4.224-5.821v-3.915c1.39-.258 2.42-1.494 2.42-2.988 0-1.7-1.39-3.04-3.039-3.04-1.648 0-3.039 1.391-3.039 3.04 0 1.494 1.03 2.679 2.421 2.988v3.915c0 3.864 2.421 7.006 5.41 7.006 2.987 0 5.408-3.142 5.408-7.006V18.7c.98-.155 1.855-.773 2.37-1.7l3.915-6.8c.773-1.03.773-2.318.155-3.4z" fill="#036666"/>
    <path d="M16.073 7.264a1.133 1.133 0 1 0 0-2.267 1.133 1.133 0 0 0 0 2.267zM22.924 7.264a1.133 1.133 0 1 0 0-2.267 1.133 1.133 0 0 0 0 2.267z" fill="#036666"/>
</svg>
