<svg width="34" height="34" viewBox="0 0 34 34" fill="none" xmlns="http://www.w3.org/2000/svg">
    <path d="M26.89 17.567c-.154 3.09-1.854 5.82-5.202 7.366-3.812 1.7-8.294.36-10.612-3.09a16.183 16.183 0 0 1-.722-1.288c-.102-.155-.051-.361.052-.516a.416.416 0 0 1 .464-.154c.154.051.257.154.36.309.36.721.773 1.39 1.34 2.009 1.288 1.39 2.833 2.215 4.74 2.473 3.966.515 7.726-2.164 8.5-6.079a7.664 7.664 0 0 0-3.504-8.14c-3.915-2.42-9.118-.875-11.076 3.297-.103.155-.154.31-.36.361-.206.052-.36 0-.464-.154-.155-.155-.155-.31-.052-.516.207-.412.413-.824.67-1.236C12.415 10.2 14.27 8.912 16.691 8.5c3.297-.618 6.645.721 8.654 3.503.98 1.442 1.546 3.194 1.546 5.564z" fill="#2D2D3D"/>
    <path d="M18.236 21.533h-4.12c-.207 0-.258-.051-.258-.257v-.825c0-.36.154-.67.515-.824.463-.206.927-.463 1.39-.72.258-.155.464-.31.722-.465.154-.103.206-.103.36 0 .928.722 1.958.722 2.885 0 .155-.103.206-.154.36 0 .31.258.722.464 1.083.619.36.154.72.36 1.03.566.31.155.464.412.464.773 0 .31 0 .618.051.927 0 .206-.051.258-.257.258-1.443-.052-2.834-.052-4.225-.052z" fill="#3FC2D8"/>
    <path d="M18.236 12.57c1.134 0 1.855.67 2.061 1.803 0 .154.052.309.052.463 0 .155 0 .31.103.412.051.052.051.207.051.258 0 .464-.051.824-.412 1.185-.052.051-.052.103-.052.154-.206.516-.463.928-.978 1.237-.619.412-1.185.412-1.855-.103-.36-.258-.567-.618-.721-.979-.052-.103-.155-.258-.206-.36-.258-.361-.412-.825-.258-1.289.103-.309.103-.618.155-.875.103-.412.206-.825.515-1.185.309-.515.876-.721 1.545-.721zM13.342 16.536c-.051-.051-.051-.103-.103-.103a32.177 32.177 0 0 0-1.288-1.34c-.154-.154-.154-.308-.103-.514.052-.155.207-.258.361-.31.206-.05.36.052.464.155.618.67 1.236 1.288 1.854 1.958.103.103.206.206.258.309.206.206.206.463 0 .721-.721.773-1.443 1.494-2.164 2.267-.206.206-.515.206-.67.051-.206-.206-.206-.463 0-.67.413-.463.876-.927 1.288-1.339.052-.051.052-.051.103-.154H7.573c-.36 0-.618-.31-.464-.619.052-.206.258-.309.464-.309h5.666c.052-.103.052-.103.103-.103z" fill="#3FC2D8"/>
</svg>
