<svg width="34" height="34" viewBox="0 0 34 34" fill="none" xmlns="http://www.w3.org/2000/svg">
    <path d="M14.527 10.973c-5.872 3.194-5.357 11.075-.154 14.012-.36.103-.67.206-1.03.257a7.943 7.943 0 0 0-2.73 1.34c-.67.566-1.237 1.185-1.392 2.112h15.61c-.104-.515-.31-.979-.619-1.34-.927-1.133-2.163-1.75-3.554-2.112-.722-.206-1.443-.309-2.164-.412-.052 0-.155-.051-.155-.103-.103-.257-.206-.566-.36-.824.257-.103.463-.154.721-.103.515.052.927-.206 1.288-.515.206-.206.103-.464-.052-.67-.103-.206-.309-.36-.566-.257-.31.103-.619.206-.876.36-.103.052-.206.206-.258.31l-.154.154c-.36.154-.36.154-.464-.206a9.29 9.29 0 0 1-.412-1.082c-.154-.36.155-.979.567-1.133 1.597-.67 3.142-1.34 4.74-2.01l.617-.309c.31-.154.36-.412.258-.72-.052-.104-.052-.207-.103-.31-.155-.257-.464-.36-.721-.206-1.7.721-3.4 1.442-5.049 2.164-.36.154-.773.309-1.133.463-.258.103-.515.361-.36.773.102.258.154.567.205.824.052.258-.103.515-.36.619-.258.102-.464 0-.619-.207-.875-.875-1.39-1.906-1.545-3.09-.206-1.391.155-2.628.979-3.71.309-.36.67-.618 1.03-.978.206.515.36.927.515 1.34.206.617.36.72.979.514l1.39-.463c.362-.155.516-.413.362-.773-.464-1.34-.98-2.679-1.443-4.018-.206-.567-.412-1.082-.618-1.649-.155-.36-.36-.463-.721-.36-.515.206-1.082.36-1.597.566a.55.55 0 0 0-.31.773c0 .31.104.618.258.979zm-1.236 2.421c0-.31.258-.567.567-.567.309 0 .566.258.566.567 0 .36-.257.618-.566.618-.31-.051-.567-.309-.567-.618z" fill="#036666"/>
    <path d="M18.442 22.151c.206-.102.413-.154.619-.257.618-.258 1.184.052 1.442.67.206.566-.052 1.133-.618 1.39-.206.104-.412.155-.67.258v.103c.155 0 .31.052.464 0l3.09-1.236c.258-.103.361-.36.258-.67-.206-.515-.412-1.082-.67-1.597-.102-.257-.36-.36-.566-.257-1.03.412-2.112.824-3.143 1.287-.103.052-.206.207-.309.258.103 0 .103 0 .103.051zM14.012 8.81l2.164-.774-.618-1.7c0-.051-.155-.103-.207-.103-.67.103-1.287.31-1.854.67a.39.39 0 0 0-.103.206l.618 1.7zm.464-.67c-.052.05-.103.205-.206.205s-.258-.051-.31-.154c-.154-.31-.257-.618-.36-.927 0-.103.052-.258.155-.31.051-.051.257.052.257.104.206.36.31.72.464 1.081zm.67-.258c-.052.051-.104.206-.207.206s-.257-.052-.309-.103a6.869 6.869 0 0 1-.36-.927c0-.052.051-.258.154-.258.052-.052.258 0 .31.103.154.258.257.618.411.979zm-.207-1.185c.052-.052.103-.206.206-.206.104 0 .258.051.258.103.155.309.258.618.36.979 0 .051-.05.257-.154.257-.051.052-.258 0-.309-.103-.103-.309-.206-.618-.36-1.03zM15.3 5.667c-.155-.36-.36-.464-.773-.31-.309.104-.67.207-.979.361-.36.155-.515.412-.412.773.722-.31 1.443-.567 2.164-.824z" fill="#036666"/>
</svg>
