<svg width="34" height="34" viewBox="0 0 34 34" fill="none" xmlns="http://www.w3.org/2000/svg">
    <path d="M22.615 8.345c-1.751-1.803-4.636-1.803-6.44-.051l-.05.051-3.813 3.813c-.051.051-.154.103-.154.154l-3.813 3.812c-1.803 1.803-1.751 4.688 0 6.44a4.666 4.666 0 0 0 6.491 0l3.812-3.813c.052 0 .052-.051.052-.051l.052-.052 3.812-3.812a4.618 4.618 0 0 0 .051-6.49zm-8.5 13.549a3.702 3.702 0 0 1-5.151 0 3.702 3.702 0 0 1 0-5.152l3.554-3.554 5.152 5.151-3.555 3.555zm7.779-7.779-3.555 3.555-5.151-5.152 3.554-3.554c1.391-1.391 3.71-1.391 5.152 0 1.442 1.39 1.442 3.76 0 5.151zM25.706 19.267c-1.752-1.803-4.585-1.803-6.388-.052l-.051.052c-1.752 1.751-1.752 4.636 0 6.44 1.751 1.802 4.636 1.75 6.439 0 1.752-1.804 1.752-4.689 0-6.44zm-6.851 3.194a3.584 3.584 0 0 1 3.606-3.606c.772 0 1.545.257 2.215.72l-5.049 5.05c-.515-.567-.772-1.34-.772-2.164zm6.181 2.575c-1.288 1.288-3.297 1.391-4.74.31l5.05-5.049c1.081 1.39.978 3.451-.31 4.74z" fill="#036666"/>
</svg>
