<svg width="34" height="34" viewBox="0 0 34 34" fill="none" xmlns="http://www.w3.org/2000/svg">
    <path d="M18.597 28.024h-2.112c-.103 0-.206-.103-.258-.154.103-.052.206-.206.258-.206h4.276c.102 0 .206.103.309.206-.103.051-.207.154-.258.154h-2.215zM15.454 28.127c-.154-.154-.257-.206-.309-.309.103-.051.258-.154.361-.154.103 0 .258.103.36.154-.102.103-.205.155-.412.31zM17.052 24.573H9.117c-1.34 0-2.215-1.082-2.009-2.37.155-.979.31-1.906.464-2.885.103-.927.566-1.494 1.442-1.803.155-.051.31-.206.412-.36.412-.825.773-1.649 1.134-2.525.566-1.236 1.494-1.854 2.833-1.854h7.315c1.34 0 2.267.566 2.833 1.803l1.082 2.473c.103.257.258.412.515.463.722.206 1.185.721 1.288 1.494.206 1.133.36 2.267.515 3.4.155 1.082-.72 2.112-1.854 2.112-2.679.052-5.358.052-8.037.052zm7.212-7.16a101.46 101.46 0 0 1-1.134-2.628c-.463-1.082-1.236-1.597-2.37-1.649h-7.624c-.978 0-1.7.516-2.112 1.443-.412.875-.772 1.7-1.133 2.575-.052.052-.052.155-.103.258h14.476zm-9.891 2.008c.154.464.309.825.463 1.185.052.206.206.31.412.31h3.555c.206 0 .31-.104.412-.31.103-.258.206-.567.31-.824.154-.36.102-.36-.258-.36h-4.894zm-3.555 1.494h1.597c.155 0 .36 0 .31-.257-.155-.619-.825-1.185-1.443-1.237-.721-.051-1.391 0-2.112 0-.155 0-.258.052-.258.258v.876c0 .257.103.412.36.36h1.546zm12.364 0h1.545c.258 0 .36-.051.36-.36v-.825c0-.257-.102-.36-.36-.36-.566 0-1.082.051-1.648 0-.876-.052-1.391.36-1.752 1.081-.154.31-.103.413.258.413.515.051 1.082.051 1.597.051zm-12.467 2.267h.721c.206 0 .31-.103.31-.36 0-.207-.104-.31-.31-.31h-1.339c-.206 0-.36.052-.36.31 0 .257.102.36.36.36h.618zm12.518-.67h-.72c-.207 0-.31.052-.31.258 0 .206 0 .36.258.36h1.494c.206 0 .257-.206.206-.36a1.6 1.6 0 0 0-.207-.31c-.206 0-.463.052-.72.052zM24.727 5.873a2.255 2.255 0 0 1 2.01 3.348c-.567 1.03-1.186 2.06-1.752 3.04-.206.309-.31.309-.515 0-.567-.98-1.185-2.01-1.752-3.04-.824-1.494.31-3.348 2.01-3.348zm.824 2.266c0-.515-.36-.875-.824-.875-.463 0-.824.412-.824.875 0 .464.36.773.824.773.515.052.824-.257.824-.773zM19.37 12.21c0 .257-.103.308-.31.205-.154-.051-.309-.103-.463-.103H15.3c-.155 0-.31.103-.464.103-.103 0-.257-.051-.309-.103-.206-.67.464-1.597 1.134-1.648h2.266c.721 0 1.134.309 1.288 1.03.103.206.155.36.155.515zM9.479 26.994h-1.03c-.567-.052-.98-.464-.98-1.03v-1.082c0-.103.104-.206.155-.31.052.104.155.207.206.31.052.36 0 .773.052 1.185 0 .36.206.566.566.566.619 0 1.237.052 1.855 0 .412 0 .567-.257.618-.67V25.5c0-.052.103-.154.155-.154a.39.39 0 0 1 .206.102c.309.773-.206 1.546-1.03 1.598-.258-.052-.516-.052-.773-.052zM24.573 26.994c-.31 0-.619.052-.98 0-.566-.052-.926-.464-.978-1.03v-.515c0-.052.103-.155.155-.155.103 0 .206.103.206.154.051.155 0 .31 0 .464 0 .412.206.67.618.67a11.15 11.15 0 0 0 1.854 0c.413 0 .567-.258.567-.618s0-.721.052-1.082c0-.103.103-.31.154-.31.206-.05.206.155.206.31v1.082c0 .515-.412.979-.927 1.03h-.927z" fill="#036666"/>
    <path d="M7.109 16.227h.67c.412.052.824.36.876.773 0 .103-.052.206-.104.31-.103-.052-.206-.104-.257-.155-.155-.413-.412-.516-.824-.516H6.49c-.31.258-.103.567-.155.876 0 .052.155.206.258.258.257.051.567 0 .824 0 .103 0 .155.103.258.206-.103.051-.206.154-.258.154h-.927c-.36 0-.567-.206-.567-.566v-.773c0-.36.206-.567.515-.567h.67zM26.89 16.64h-.36c-.36 0-.618.102-.773.463-.051.103-.206.103-.309.206 0-.103-.103-.258-.051-.36.103-.413.515-.67.979-.722h1.184c.361 0 .516.155.567.515v.928c-.051.36-.206.515-.566.515h-.928c-.103 0-.154-.103-.257-.206.103-.052.154-.155.257-.206h.825c.206 0 .309-.103.257-.31v-.05c-.052-.928.103-.774-.824-.774zM15.351 26.994H13.24c-.103 0-.206-.155-.309-.206.103-.052.206-.155.258-.155h4.276c.103 0 .206.103.309.155-.103.051-.206.154-.31.154-.67.052-1.39.052-2.112.052zM18.494 27.097c-.155-.155-.36-.206-.36-.31 0-.257.257-.154.411-.154.103 0 .206.103.31.155-.155.103-.207.206-.361.309zM20.864 13.806c.72.052 1.184.31 1.442.876.31.566.515 1.185.773 1.751.051.103-.052.206-.052.361-.103-.052-.257-.103-.309-.206l-.618-1.391c-.206-.567-.567-.927-1.185-.979-.154 0-.36-.051-.258-.257 0-.052.207-.103.207-.155z" fill="#036666"/>
</svg>
