<svg width="34" height="34" viewBox="0 0 34 34" fill="none" xmlns="http://www.w3.org/2000/svg">
    <path d="M12.106 10.458c0-.361 0-.67.052-.98a2.837 2.837 0 0 1 2.833-2.42h4.121c1.597 0 2.833 1.236 2.885 2.833v.567h4.328c1.648 0 2.884 1.236 2.884 2.884v10.664c0 1.648-1.236 2.885-2.885 2.885H7.78c-1.649 0-2.885-1.236-2.885-2.885V13.291c0-1.597 1.236-2.885 2.885-2.885H11.9c.051.052.103.052.206.052zM17 11.9H7.727c-.876 0-1.442.618-1.442 1.442v10.612c0 .773.618 1.494 1.494 1.494H26.22c.927 0 1.494-.566 1.494-1.494V13.342c0-.154 0-.309-.051-.412-.155-.67-.722-1.082-1.391-1.082-3.091.052-6.182.052-9.273.052zm3.503-1.494v-.515c0-.773-.618-1.391-1.39-1.391h-4.174c-.515 0-.927.258-1.236.721-.154.31-.154.618-.206.979 0 .206.052.258.258.258h6.49c.104 0 .155 0 .258-.052z" fill="#036666"/>
    <path d="M18.39 17.36h1.598c.773-.05 1.236.258 1.185 1.186v.67c0 .514-.36.875-.876.875H18.391V21.945c0 .619-.36.928-.927.928h-.876c-.515 0-.876-.36-.876-.876v-1.906H13.858c-.567 0-.928-.36-.928-.927v-.928c0-.515.36-.875.876-.875h1.906v-1.803c0-.67.31-.98.979-.98h.824c.515 0 .876.361.876.877v1.906z" fill="#036666"/>
</svg>
