<svg width="34" height="34" viewBox="0 0 34 34" fill="none" xmlns="http://www.w3.org/2000/svg">
    <path d="M17 22.667a602.782 602.782 0 0 0-5.46-6.44h3.296V10.51c0-.618.412-1.082 1.03-1.082h2.164c.618 0 1.03.412 1.03 1.03V16.228h3.298A322.51 322.51 0 0 1 17 22.667z" fill="#3FC2D8"/>
    <path d="M17 24.573h-4.894a2.311 2.311 0 0 1-2.267-1.803c-.051-.155-.051-.31-.051-.464V20.04c0-.257.154-.412.36-.463.258-.052.464.154.464.463v2.215c0 .413.155.773.412 1.03.258.258.618.413 1.03.413h9.84c.773 0 1.442-.67 1.442-1.442v-2.267c0-.258.155-.412.36-.412.258-.052.465.154.465.412v2.267c0 1.339-1.03 2.318-2.319 2.318H17z" fill="#2D2D3D"/>
</svg>
