<svg width="34" height="34" viewBox="0 0 34 34" fill="none" xmlns="http://www.w3.org/2000/svg">
    <path d="M16.536 22.821H11.18V9.324H22.82v5.564c-.309-.052-.618-.155-.927-.206V10.56c0-.206-.052-.258-.31-.258h-9.529v11.642h3.709c.206 0 .309.052.36.258.155.155.258.36.412.618z" fill="#3FC2D8"/>
    <path d="M21.121 15.351c2.576 0 4.688 2.113 4.688 4.688 0 2.576-2.112 4.637-4.74 4.637-2.524 0-4.636-2.112-4.584-4.637-.052-2.627 2.06-4.688 4.636-4.688zm3.76 4.637c-.05-2.112-1.7-3.812-3.811-3.76-2.113.05-3.761 1.75-3.71 3.863a3.816 3.816 0 0 0 3.813 3.709 3.816 3.816 0 0 0 3.709-3.812z" fill="#2D2D3D"/>
    <path d="M10.509 21.945h-.876V10.2h.876v11.745zM9.015 21.07h-.824v-9.943h.824v9.943z" fill="#3FC2D8"/>
    <path d="M12.776 12.003v-.721h8.397v.721h-8.397zM21.173 13.342v.464h-5.615v-.464h5.615zM15.557 14.888v-.464h4.74v.258c-.36.051-.773.154-1.133.154h-3.349c-.103.052-.154.052-.258.052zM14.579 18.958c-.103.154-.155.257-.36.257-.361-.051-.774 0-1.186 0v1.34h1.237c.051-.258-.104-.567.257-.722v.928h-1.751v-1.803h1.803zM13.033 14.785h1.237c.103-.206-.104-.567.257-.721v.927h-1.751v-1.803h1.751c-.051.154-.103.257-.309.257h-1.185v1.34zM14.27 17.618c.051-.257-.104-.566.257-.721v.927h-1.751v-1.803h1.751c-.051.155-.103.258-.309.206h-1.185v1.34c.412.051.825.051 1.237.051zM15.557 16.69v-.463h1.752c-.206.258-.36.515-.721.464-.36-.052-.721 0-1.03 0z" fill="#2D2D3D"/>
    <path d="M13.754 14.27c.31-.36.567-.618.876-.928.103.103.155.155.206.155l-1.082 1.082c-.154-.155-.309-.36-.566-.567.051-.051.103-.103.206-.154a.954.954 0 0 1 .36.412zM13.754 20.245l-.566-.566c.051-.052.154-.103.257-.155.103.103.206.258.31.464.308-.36.618-.67.875-.979.103.052.155.103.206.155-.36.412-.721.772-1.082 1.081zM13.806 17.464l-.618-.618c.051-.052.103-.104.206-.155.103.155.206.258.309.412.309-.36.618-.618.876-.979l.257.258c-.206.206-.412.36-.566.515-.104.206-.258.36-.464.567zM16.433 17.31c-.257.566-.051.463-.927.463v-.464h.927zM15.815 19.06c0 .413 0 .464-.258.464v-.463h.258zM15.764 20.606h-.207v-.464c.207 0 .207 0 .207.464zM22.048 20.555c.103.051.155.154.258.206l.103-.103c.412.412.773.824 1.185 1.184l-.67.67c-.36-.36-.721-.721-1.082-1.133-.051-.052-.051-.155 0-.258-.103-.051-.154-.154-.206-.206-1.185.618-2.163.412-2.782-.463-.566-.825-.412-1.907.31-2.576.72-.67 1.803-.67 2.575-.052.721.67.98 1.752.31 2.73zm-1.545.154c.721 0 1.39-.618 1.39-1.34 0-.772-.617-1.39-1.39-1.39-.721 0-1.391.618-1.391 1.34 0 .772.618 1.39 1.39 1.39z" fill="#2D2D3D"/>
</svg>
