<svg width="23" height="26" viewBox="0 0 23 26" fill="none" xmlns="http://www.w3.org/2000/svg">
    <path d="M7.818 3.051C-.835 7.187-.076 17.394 7.591 21.197c-.532.133-.987.267-1.518.333a12.427 12.427 0 0 0-4.023 1.735C1.063 23.999.228 24.799 0 26h23c-.152-.667-.455-1.267-.91-1.735-1.367-1.467-3.189-2.268-5.238-2.735-1.063-.267-2.126-.4-3.189-.533-.075 0-.227-.067-.227-.134-.152-.333-.304-.734-.532-1.067.38-.134.684-.2 1.063-.134.76.067 1.366-.267 1.898-.667.303-.267.152-.6-.076-.867-.152-.267-.456-.467-.835-.334-.456.134-.911.267-1.29.467-.152.067-.304.267-.38.4l-.228.2c-.531.201-.531.201-.683-.266-.228-.467-.455-.934-.607-1.401-.228-.467.227-1.267.835-1.468 2.353-.867 4.63-1.734 6.983-2.601l.911-.4c.456-.2.531-.534.38-.935-.076-.133-.076-.266-.152-.4a.826.826 0 0 0-1.063-.267c-2.505.934-5.01 1.868-7.439 2.802-.531.2-1.139.4-1.67.6-.38.134-.759.467-.531 1.001.152.334.228.734.303 1.068.076.333-.151.667-.53.8-.38.134-.684 0-.912-.267-1.29-1.134-2.05-2.468-2.277-4.002-.304-1.802.228-3.403 1.442-4.804.456-.467.987-.8 1.518-1.267.304.667.532 1.2.76 1.734.303.8.53.934 1.442.667l2.05-.6c.53-.2.758-.534.53-1-.683-1.735-1.442-3.47-2.125-5.204-.303-.734-.607-1.401-.91-2.135-.229-.467-.532-.6-1.063-.467-.76.267-1.595.467-2.354.734-.455.133-.683.6-.455 1 0 .4.152.801.38 1.268zM5.997 6.187c0-.4.38-.734.835-.734.455 0 .835.333.835.734 0 .467-.38.8-.835.8-.456-.067-.835-.4-.835-.8z" fill="#036666"/>
</svg>
